<?xml version="1.0" ?><svg viewBox="0 0 64 64" xmlns="http://www.w3.org/2000/svg"><defs><style>.cls-1{fill:#d6314e;}.cls-2{fill:#fff;}</style></defs><title/><g data-name="35-ask-fm" id="_35-ask-fm"><rect class="cls-1" height="64" rx="11.2" ry="11.2" transform="translate(64 64) rotate(180)" width="64"/><path class="cls-2" d="M25.75,27.35a5.17,5.17,0,0,1,3.37,1.27,1.6,1.6,0,0,0,2.16-2.37,8.42,8.42,0,0,0-5.53-2.1h0a5.8,5.8,0,0,0-4.5,1.92,3.13,3.13,0,0,0-.66,2.45,3.83,3.83,0,0,0,1.69,2.55,10.06,10.06,0,0,0,3.53,1.37,6.64,6.64,0,0,1,2.45.84.75.75,0,0,1,.33.49.22.22,0,0,1-.07.2,2.78,2.78,0,0,1-1.93.64h0a5.21,5.21,0,0,1-3.38-1.27A1.6,1.6,0,0,0,21,35.7a8.4,8.4,0,0,0,5.54,2.11h0a5.79,5.79,0,0,0,4.32-1.71,3.43,3.43,0,0,0,.86-2.68,3.89,3.89,0,0,0-1.65-2.74,9,9,0,0,0-3.69-1.38A6.74,6.74,0,0,1,24,28.4a1.74,1.74,0,0,1-.3-.31,2.66,2.66,0,0,1,2-.74Z"/><path class="cls-2" d="M17.8,24.21a2,2,0,0,0-2,2v.55A5,5,0,0,0,12,24.91c-3,0-5.4,2.86-5.4,6.4S9,37.71,12,37.71a5,5,0,0,0,3.8-1.86,2,2,0,0,0,4,0v-9.6A2,2,0,0,0,17.8,24.21Zm-5,9.7a2.42,2.42,0,0,1-2.2-2.6,2.43,2.43,0,0,1,2.2-2.61A2.43,2.43,0,0,1,15,31.31,2.42,2.42,0,0,1,12.8,33.91Z"/><path class="cls-2" d="M42.66,34.69l-3-4.45,2.77-2.77a2,2,0,0,0-2.82-2.83l-3,3V26.06a2,2,0,1,0-4,0v9.6a2,2,0,0,0,4,0V33.29l.16-.17,2.58,3.81a2,2,0,0,0,1.66.88,2,2,0,0,0,1.66-3.12Z"/><path class="cls-2" d="M54.2,30.06s-.8-1.2-3.2-.4l-.8.4v-.4H47c0-1.6,2.4-1.6,2.4-1.6v-1.6c-4,0-4,3.2-4,3.2H43.8v1.6h1.6s0,6.4-2.4,7.2,0,2.4,1.6.8,2.4-6.4,2.4-8a1.11,1.11,0,0,1,1.6,0l-.8,6.4h1.6l.8-6.4s1.2-.8,2,0l-.8,6.4H53l.8-6.4s1.2-.8,2,0l-.8,6.4h1.6l.8-6.4S57.4,27.66,54.2,30.06Z"/></g></svg>