<?xml version="1.0" ?><svg style="enable-background:new 0 0 512 512;" version="1.1" viewBox="0 0 512 512" xml:space="preserve" xmlns="http://www.w3.org/2000/svg" xmlns:xlink="http://www.w3.org/1999/xlink"><style type="text/css">
	.st0{fill:#15592A;}
	.st1{fill:#25D366;}
	.st2{opacity:0.45;}
	.st3{fill:#FFFFFF;}
</style><g id="Edges"/><g id="Background_Bottom"><g><path class="st0" d="M492.3,443.1c0,34.2-27.7,61.9-61.9,61.9H80.7c-34.2,0-61.9-27.7-61.9-61.9V93.4c0-34.2,27.7-61.9,61.9-61.9    h349.7c34.2,0,61.9,27.7,61.9,61.9V443.1z"/></g></g><g id="Background"><path class="st1" d="M492.3,418.4c0,34.2-27.7,61.9-61.9,61.9H80.7c-34.2,0-61.9-27.7-61.9-61.9V68.6c0-34.2,27.7-61.9,61.9-61.9   h349.7c34.2,0,61.9,27.7,61.9,61.9V418.4z"/></g><g id="Shadow"><path class="st2" d="M492.3,298.3L355.2,161.2c-13.1-14.8-28.7-26.8-45.9-35.8l-6.5,16.6c0.2,0.1,0.4,0.2,0.5,0.3l57.5,57.5   c2,3.6,3.8,7.4,5.5,11.2c3.4,7.8,6.1,15.8,8,23.8l-45.1-45.1c-9.6-11.6-21.2-21.1-34-28.4l-1,2.6L243.4,113   c-1.7-2.5-4.1-3.7-6.3-4.8c-3.5-1.8-7.7-3.6-11.8-5.5c-4.1-1.9-11.5-3.3-19.9,0.3c-8.4,3.6-31.1,11.4-44.9,41.7   c-13.7,30.4-4.8,69.7-3.6,75.2c1.2,5.5,11.8,87.7,63.4,140.8c7,7.2,13.2,13.3,18.7,18.4l101.1,101.1h91.1l0,0   c33.8-0.5,61-28,61-61.9L492.3,298.3z"/></g><g id="Symbol"><path class="st3" d="M244,179.6c0.1,3.8-0.4,7.9-4.4,11c-3.9,3.2-6.1,5.3-10.8,7.5c-4.7,2.2-10.1,5.1-14.1,6.6   c-4.5,1.7-9.2,3.6-8.4,11.4c0.8,7.8,4.1,33.6,15.1,58.3c14.1,31.7,31,47.2,35.8,53.1c4.8,5.9,8.6,7,14.1,4.5   c5.5-2.5,23.6-11.1,30.5-15.4c6.9-4.3,10.6-1.4,15.3,3.2c4.7,4.6,28.3,33.2,33.1,39.1c4.8,5.9,8.2,9.3,8.6,12.5   c0.4,3.3-5.2,15.6-16.8,27.7c-11.7,12.1-43.1,14.6-54.9,10.5c-11.8-4.1-24.2-4.8-67.1-48.9c-51.6-53.1-62.2-135.3-63.4-140.8   c-1.2-5.5-10.1-44.9,3.6-75.2c13.7-30.4,36.4-38.1,44.9-41.7c8.4-3.6,15.8-2.2,19.9-0.3c4.1,1.9,8.2,3.7,11.8,5.5   c4.3,2.2,9.1,4.6,9.1,16.9C245.6,139.8,243.8,175.8,244,179.6z"/><g><path class="st3" d="M382.5,203.9c-15.3-35.1-41.7-62-73.2-78.5l-6.5,16.6c27.3,14.8,50.1,38.4,63.5,69    s15.3,63.4,7.5,93.5l16.6,6.5C399.7,276.6,397.9,238.9,382.5,203.9z" id="XMLID_8_"/><path class="st3" d="M295.3,161.3l-6.5,16.7c18.3,10.9,33.4,27.4,42.6,48.3c9.2,20.9,10.9,43.2,6.6,64l16.7,6.5    c5.9-25.1,4-52.2-7.1-77.7S317.7,174,295.3,161.3z" id="XMLID_7_"/><path class="st3" d="M281.1,197.5l-6.6,16.9c9.2,6.8,16.8,16,21.7,27.2c4.9,11.2,6.5,23.1,5.2,34.4l16.9,6.6    c2.6-15.8,0.9-32.4-6-48.2C305.5,218.7,294.5,206.2,281.1,197.5z" id="XMLID_6_"/><ellipse class="st3" cx="261.6" cy="256.8" id="XMLID_5_" rx="17.9" ry="17.9" transform="matrix(0.9162 -0.4007 0.4007 0.9162 -80.9716 126.3206)"/></g></g></svg>