<?xml version="1.0" ?><svg height="512" preserveAspectRatio="xMidYMid" viewBox="0 0 512 512" width="512" xmlns="http://www.w3.org/2000/svg" xmlns:xlink="http://www.w3.org/1999/xlink"><defs><style>
      .cls-1 {
        fill: #3498db;
      }

      .cls-2 {
        fill: #000;
        opacity: 0.3;
      }

      .cls-2, .cls-3 {
        fill-rule: evenodd;
      }

      .cls-3 {
        fill: #fff;
      }
    </style></defs><g><circle class="cls-1" cx="256" cy="256" r="256"/><path class="cls-2" d="M378.521,349.723 L320.103,503.908 C299.616,509.190 278.136,512.000 256.000,512.000 C114.615,512.000 0.000,397.385 0.000,256.000 C0.000,231.180 3.532,207.184 10.121,184.489 L131.627,132.043 L156.000,234.000 L224.000,234.000 L336.000,134.000 L378.000,170.000 L343.000,219.000 L378.521,349.723 Z"/><path class="cls-3" d="M128.991,363.922 C128.991,341.385 130.240,133.055 130.240,133.055 C130.240,133.055 170.128,111.276 180.220,158.149 C180.220,180.953 180.220,197.960 180.220,233.432 C185.266,202.394 281.273,169.152 297.673,264.800 C297.340,298.205 297.673,318.534 297.673,341.337 C297.673,364.141 331.409,360.328 331.409,342.592 C331.409,324.856 331.409,258.221 331.409,224.649 C331.409,209.569 340.615,205.158 352.651,204.573 C365.573,203.946 381.390,208.665 381.390,220.885 C381.390,247.489 381.390,298.730 381.390,333.809 C381.390,368.887 346.340,383.997 315.166,383.997 C283.992,383.997 248.942,367.024 248.942,338.827 C248.942,310.632 247.693,302.656 247.693,274.838 C247.693,233.285 180.921,238.612 180.220,277.347 C179.818,299.528 180.220,336.961 180.220,362.667 C180.220,388.373 128.991,386.459 128.991,363.922 ZM327.661,155.640 C327.661,155.640 324.796,129.093 353.901,128.036 C383.006,126.980 382.639,154.385 382.639,154.385 C382.639,154.385 383.751,180.030 356.399,180.734 C329.048,181.438 327.661,155.640 327.661,155.640 Z"/></g></svg>