<?xml version="1.0" ?><svg viewBox="0 0 64 64" xmlns="http://www.w3.org/2000/svg" xmlns:xlink="http://www.w3.org/1999/xlink"><defs><style>.cls-1{fill:url(#linear-gradient);}.cls-2{fill:#ff0117;}.cls-3{fill:#fff;}.cls-4{fill:#ffa82d;}</style><linearGradient gradientUnits="userSpaceOnUse" id="linear-gradient" x1="32" x2="32" y1="1.87" y2="62.67"><stop offset="0" stop-color="#ffeda5"/><stop offset="0.11" stop-color="#ffea96"/><stop offset="0.52" stop-color="#ffe063"/><stop offset="0.83" stop-color="#ffd943"/><stop offset="1" stop-color="#ffd737"/></linearGradient></defs><title/><g data-name="16-weibo" id="_16-weibo"><rect class="cls-1" height="64" rx="11.2" ry="11.2" width="64"/><path class="cls-2" d="M51.69,37c-.44,7.8-8.71,15-21,16-6.07.53-13.07-.31-18.12-4-6.16-4.5-5.9-11.85-3-18.25,3.28-7.24,9.67-12.7,16.93-15.72,7.44-2.22,6.28,5.07,5.69,7.58a.39.39,0,0,0,.55.45c2.22-1,8.63-3.63,11.36-1.77s1.37,6.92.84,8.47a.39.39,0,0,0,.32.52C46.91,30.55,52,31.69,51.69,37Z"/><ellipse class="cls-3" cx="27.51" cy="39.54" rx="16.11" ry="10.34" transform="translate(-3.33 2.54) rotate(-4.98)"/><ellipse cx="26.43" cy="40.67" rx="8.56" ry="7.36" transform="translate(-3.43 2.45) rotate(-4.98)"/><circle class="cls-3" cx="23.98" cy="42" r="2.46"/><circle class="cls-3" cx="28.62" cy="39.45" r="0.99"/><path class="cls-4" d="M57.25,27.79a1.92,1.92,0,0,1-.66-.12,2,2,0,0,1-1.22-2.55A10.79,10.79,0,0,0,56,21.51,10.22,10.22,0,0,0,46,11.1a9.63,9.63,0,0,0-2.62.36,2,2,0,0,1-1.09-3.85A13.61,13.61,0,0,1,46,7.1,14.22,14.22,0,0,1,60,21.51a14.74,14.74,0,0,1-.85,4.94A2,2,0,0,1,57.25,27.79Z"/><path class="cls-4" d="M50.48,25.16a2.24,2.24,0,0,1-.67-.11,2,2,0,0,1-1.21-2.56,3.57,3.57,0,0,0,.2-1.18A3.28,3.28,0,0,0,45.62,18a3.32,3.32,0,0,0-.83.11,2,2,0,0,1-1.08-3.85,7.18,7.18,0,0,1,9.09,7.1,7.67,7.67,0,0,1-.43,2.52A2,2,0,0,1,50.48,25.16Z"/></g></svg>